<svg width="10" height="11" viewBox="0 0 10 11" fill="none" xmlns="http://www.w3.org/2000/svg">
<path fill-rule="evenodd" clip-rule="evenodd" d="M5.29649 10.629L5.29099 10.63L5.25549 10.6475L5.24549 10.6495L5.23849 10.6475L5.20299 10.63C5.19766 10.6283 5.19366 10.6291 5.19099 10.6325L5.18899 10.6375L5.18049 10.8515L5.18299 10.8615L5.18799 10.868L5.23999 10.905L5.24749 10.907L5.25349 10.905L5.30549 10.868L5.31149 10.86L5.31349 10.8515L5.30499 10.638C5.30366 10.6326 5.30083 10.6296 5.29649 10.629ZM5.42899 10.5725L5.42249 10.5735L5.32999 10.62L5.32499 10.625L5.32349 10.6305L5.33249 10.8455L5.33499 10.8515L5.33899 10.855L5.43949 10.9015C5.44583 10.9031 5.45066 10.9018 5.45399 10.8975L5.45599 10.8905L5.43899 10.5835C5.43733 10.5775 5.43399 10.5738 5.42899 10.5725ZM5.07149 10.5735C5.06929 10.5721 5.06666 10.5717 5.06414 10.5723C5.06163 10.5728 5.05942 10.5743 5.05799 10.5765L5.05499 10.5835L5.03799 10.8905C5.03833 10.8965 5.04116 10.9005 5.04649 10.9025L5.05399 10.9015L5.15449 10.855L5.15949 10.851L5.16149 10.8455L5.16999 10.6305L5.16849 10.6245L5.16349 10.6195L5.07149 10.5735Z" fill="white"/>
<path fill-rule="evenodd" clip-rule="evenodd" d="M5 0C4.86739 0 4.74021 0.0526784 4.64645 0.146447C4.55268 0.240215 4.5 0.367392 4.5 0.5V1.5H1.5C1.23478 1.5 0.98043 1.60536 0.792893 1.79289C0.605357 1.98043 0.5 2.23478 0.5 2.5V9C0.5 9.26522 0.605357 9.51957 0.792893 9.70711C0.98043 9.89464 1.23478 10 1.5 10H8.5C8.76522 10 9.01957 9.89464 9.20711 9.70711C9.39464 9.51957 9.5 9.26522 9.5 9V2.5C9.5 2.23478 9.39464 1.98043 9.20711 1.79289C9.01957 1.60536 8.76522 1.5 8.5 1.5H5.5V0.5C5.5 0.367392 5.44732 0.240215 5.35355 0.146447C5.25979 0.0526784 5.13261 0 5 0ZM5.5 1.5V5.914L6.414 5C6.50775 4.90618 6.63494 4.85345 6.76757 4.8534C6.90021 4.85335 7.02743 4.906 7.12125 4.99975C7.21507 5.0935 7.2678 5.22069 7.26785 5.35332C7.2679 5.48596 7.21525 5.61318 7.1215 5.707L5.4415 7.3865C5.32431 7.50359 5.16542 7.56937 4.99975 7.56937C4.83408 7.56937 4.67519 7.50359 4.558 7.3865L2.8785 5.707C2.83208 5.66054 2.79526 5.6054 2.77015 5.54472C2.74504 5.48403 2.73213 5.419 2.73215 5.35332C2.73217 5.28765 2.74513 5.22262 2.77028 5.16196C2.79544 5.10129 2.83229 5.04617 2.87875 4.99975C2.92521 4.95333 2.98035 4.91651 3.04103 4.8914C3.10172 4.86629 3.16675 4.85338 3.23243 4.8534C3.2981 4.85342 3.36313 4.86638 3.42379 4.89153C3.48446 4.91669 3.53958 4.95354 3.586 5L4.5 5.914V1.5H5.5Z" fill="white"/>
</svg>
